<svg width="24" height="24" viewBox="0 0 24 24" fill="none" xmlns="http://www.w3.org/2000/svg">
<g id="Iconsax/Linear/calendarsearch">
<path id="Vector" d="M8 2V5M16 2V5" stroke="#679FD3" stroke-width="1.5" stroke-miterlimit="10" stroke-linecap="round" stroke-linejoin="round"/>
<path id="Vector_2" d="M22 22L21 21M18.2 21.4C19.0487 21.4 19.8626 21.0629 20.4627 20.4627C21.0629 19.8626 21.4 19.0487 21.4 18.2C21.4 17.3513 21.0629 16.5374 20.4627 15.9373C19.8626 15.3371 19.0487 15 18.2 15C17.3513 15 16.5374 15.3371 15.9373 15.9373C15.3371 16.5374 15 17.3513 15 18.2C15 19.0487 15.3371 19.8626 15.9373 20.4627C16.5374 21.0629 17.3513 21.4 18.2 21.4Z" stroke="#679FD3" stroke-width="1.5" stroke-linecap="round" stroke-linejoin="round"/>
<path id="Vector_3" d="M3.5 9.09H20.5M13.37 22H8C4.5 22 3 20 3 17V8.5C3 5.5 4.5 3.5 8 3.5H16C19.5 3.5 21 5.5 21 8.5V13" stroke="#679FD3" stroke-width="1.5" stroke-miterlimit="10" stroke-linecap="round" stroke-linejoin="round"/>
<path id="Vector_4" d="M11.9949 13.7H12.0049M8.29395 13.7H8.30395M8.29395 16.7H8.30395" stroke="#679FD3" stroke-width="2" stroke-linecap="round" stroke-linejoin="round"/>
</g>
</svg>
