<svg width="24" height="24" viewBox="0 0 24 24" fill="none" xmlns="http://www.w3.org/2000/svg">
<path d="M20 5.781C16.855 5.4675 13.6911 5.306 10.5367 5.306C8.66667 5.306 6.79667 5.401 4.92667 5.591L3 5.781M8.19444 4.8215L8.40222 3.577C8.55333 2.6745 8.66667 2 10.2628 2H12.7372C14.3333 2 14.4561 2.7125 14.5978 3.5865L14.8056 4.8215M17.9694 8.783L17.3556 18.3495C17.2517 19.841 17.1667 21 14.5317 21H8.46833C5.83333 21 5.74833 19.841 5.64444 18.3495L5.03056 8.783M9.92278 15.775H13.0678M9.13889 11.975H13.8611" stroke="#555555" stroke-width="1.5" stroke-linecap="round" stroke-linejoin="round"/>
</svg>
