<svg width="24" height="24" viewBox="0 0 24 24" fill="none" xmlns="http://www.w3.org/2000/svg">
<g id="Iconsax/Linear/warning2">
<path id="Vector" d="M12 7.75V13M21.08 8.58V15.42C21.08 16.54 20.48 17.58 19.51 18.15L13.57 21.58C12.6 22.14 11.4 22.14 10.42 21.58L4.48004 18.15C4.00181 17.8727 3.60497 17.4745 3.32939 16.9953C3.0538 16.5161 2.90918 15.9728 2.91004 15.42V8.58C2.91004 7.46 3.51004 6.42 4.48004 5.85L10.42 2.42C11.39 1.86 12.59 1.86 13.57 2.42L19.51 5.85C20.48 6.42 21.08 7.45 21.08 8.58Z" stroke="#F46D6D" stroke-width="1.5" stroke-linecap="round" stroke-linejoin="round"/>
<path id="Vector_2" d="M12 16.2V16.3" stroke="#F46D6D" stroke-width="2" stroke-linecap="round" stroke-linejoin="round"/>
</g>
</svg>
